<mxfile host="app.diagrams.net" agent="Mozilla/5.0 (Windows NT 10.0; Win64; x64) AppleWebKit/537.36 (KHTML, like Gecko) Chrome/130.0.0.0 Safari/537.36" version="24.8.3">
  <diagram name="Page-1" id="pEdkh2nd6Kz0r7DWtA8d">
    <mxGraphModel grid="1" page="1" gridSize="10" guides="1" tooltips="1" connect="1" arrows="1" fold="1" pageScale="1" pageWidth="850" pageHeight="1100" math="0" shadow="0">
      <root>
        <mxCell id="0" />
        <mxCell id="1" parent="0" />
        <mxCell id="0xTwku5NVh-F6FxW5PhT-1" value="Checkers" style="shape=umlFrame;whiteSpace=wrap;html=1;pointerEvents=0;width=80;height=30;" vertex="1" parent="1">
          <mxGeometry x="80" y="90" width="710" height="690" as="geometry" />
        </mxCell>
        <mxCell id="0xTwku5NVh-F6FxW5PhT-2" style="edgeStyle=orthogonalEdgeStyle;rounded=0;orthogonalLoop=1;jettySize=auto;html=1;exitX=1;exitY=0.3333333333333333;exitDx=0;exitDy=0;exitPerimeter=0;entryX=0;entryY=0.5;entryDx=0;entryDy=0;" edge="1" parent="1" source="0xTwku5NVh-F6FxW5PhT-3" target="0xTwku5NVh-F6FxW5PhT-6">
          <mxGeometry relative="1" as="geometry" />
        </mxCell>
        <mxCell id="0xTwku5NVh-F6FxW5PhT-3" value="Player 1&lt;div&gt;&lt;br&gt;&lt;/div&gt;" style="shape=umlActor;verticalLabelPosition=bottom;verticalAlign=top;html=1;" vertex="1" parent="1">
          <mxGeometry x="30" y="270" width="30" height="60" as="geometry" />
        </mxCell>
        <mxCell id="0xTwku5NVh-F6FxW5PhT-4" style="edgeStyle=orthogonalEdgeStyle;rounded=0;orthogonalLoop=1;jettySize=auto;html=1;exitX=0;exitY=0.3333333333333333;exitDx=0;exitDy=0;exitPerimeter=0;entryX=1;entryY=0.5;entryDx=0;entryDy=0;" edge="1" parent="1" source="0xTwku5NVh-F6FxW5PhT-5" target="0xTwku5NVh-F6FxW5PhT-6">
          <mxGeometry relative="1" as="geometry" />
        </mxCell>
        <mxCell id="0xTwku5NVh-F6FxW5PhT-5" value="Player 2" style="shape=umlActor;verticalLabelPosition=bottom;verticalAlign=top;html=1;" vertex="1" parent="1">
          <mxGeometry x="810" y="270" width="30" height="60" as="geometry" />
        </mxCell>
        <mxCell id="0xTwku5NVh-F6FxW5PhT-6" value="Checkers Game" style="ellipse;whiteSpace=wrap;html=1;" vertex="1" parent="1">
          <mxGeometry x="405" y="200" width="80" height="40" as="geometry" />
        </mxCell>
        <mxCell id="0xTwku5NVh-F6FxW5PhT-7" style="edgeStyle=orthogonalEdgeStyle;rounded=0;orthogonalLoop=1;jettySize=auto;html=1;exitX=0.5;exitY=1;exitDx=0;exitDy=0;entryX=0.5;entryY=0;entryDx=0;entryDy=0;dashed=1;" edge="1" parent="1" source="0xTwku5NVh-F6FxW5PhT-8" target="0xTwku5NVh-F6FxW5PhT-9">
          <mxGeometry relative="1" as="geometry" />
        </mxCell>
        <mxCell id="0xTwku5NVh-F6FxW5PhT-8" value="Setup Board" style="ellipse;whiteSpace=wrap;html=1;" vertex="1" parent="1">
          <mxGeometry x="300" y="320" width="80" height="40" as="geometry" />
        </mxCell>
        <mxCell id="0xTwku5NVh-F6FxW5PhT-9" value="Player Move on click" style="ellipse;whiteSpace=wrap;html=1;" vertex="1" parent="1">
          <mxGeometry x="287.19" y="450" width="105.62" height="50" as="geometry" />
        </mxCell>
        <mxCell id="0xTwku5NVh-F6FxW5PhT-10" style="edgeStyle=orthogonalEdgeStyle;rounded=0;orthogonalLoop=1;jettySize=auto;html=1;exitX=0.5;exitY=1;exitDx=0;exitDy=0;dashed=1;" edge="1" parent="1" source="0xTwku5NVh-F6FxW5PhT-6" target="0xTwku5NVh-F6FxW5PhT-8">
          <mxGeometry relative="1" as="geometry">
            <mxPoint x="444.5" y="250" as="sourcePoint" />
            <mxPoint x="445" y="300" as="targetPoint" />
          </mxGeometry>
        </mxCell>
        <mxCell id="0xTwku5NVh-F6FxW5PhT-11" value="Eliminate piece" style="ellipse;whiteSpace=wrap;html=1;" vertex="1" parent="1">
          <mxGeometry x="130" y="455" width="80" height="40" as="geometry" />
        </mxCell>
        <mxCell id="0xTwku5NVh-F6FxW5PhT-12" style="edgeStyle=orthogonalEdgeStyle;rounded=0;orthogonalLoop=1;jettySize=auto;html=1;exitX=0;exitY=0.5;exitDx=0;exitDy=0;entryX=1;entryY=0.5;entryDx=0;entryDy=0;dashed=1;" edge="1" parent="1" source="0xTwku5NVh-F6FxW5PhT-9" target="0xTwku5NVh-F6FxW5PhT-11">
          <mxGeometry relative="1" as="geometry">
            <mxPoint x="455" y="350" as="sourcePoint" />
            <mxPoint x="455" y="400" as="targetPoint" />
          </mxGeometry>
        </mxCell>
        <mxCell id="0xTwku5NVh-F6FxW5PhT-13" style="edgeStyle=orthogonalEdgeStyle;rounded=0;orthogonalLoop=1;jettySize=auto;html=1;exitX=0.5;exitY=1;exitDx=0;exitDy=0;entryX=0.5;entryY=0;entryDx=0;entryDy=0;dashed=1;" edge="1" parent="1" source="0xTwku5NVh-F6FxW5PhT-15" target="0xTwku5NVh-F6FxW5PhT-16">
          <mxGeometry relative="1" as="geometry" />
        </mxCell>
        <mxCell id="0xTwku5NVh-F6FxW5PhT-14" style="edgeStyle=orthogonalEdgeStyle;rounded=0;orthogonalLoop=1;jettySize=auto;html=1;exitX=0.5;exitY=1;exitDx=0;exitDy=0;entryX=0.5;entryY=0;entryDx=0;entryDy=0;dashed=1;" edge="1" parent="1" source="0xTwku5NVh-F6FxW5PhT-15" target="0xTwku5NVh-F6FxW5PhT-17">
          <mxGeometry relative="1" as="geometry" />
        </mxCell>
        <mxCell id="0xTwku5NVh-F6FxW5PhT-15" value="End Game" style="ellipse;whiteSpace=wrap;html=1;" vertex="1" parent="1">
          <mxGeometry x="600" y="440" width="80" height="40" as="geometry" />
        </mxCell>
        <mxCell id="0xTwku5NVh-F6FxW5PhT-16" value="Play Again Button" style="ellipse;whiteSpace=wrap;html=1;" vertex="1" parent="1">
          <mxGeometry x="550" y="560" width="80" height="40" as="geometry" />
        </mxCell>
        <mxCell id="0xTwku5NVh-F6FxW5PhT-17" value="Exit" style="ellipse;whiteSpace=wrap;html=1;" vertex="1" parent="1">
          <mxGeometry x="650" y="560" width="80" height="40" as="geometry" />
        </mxCell>
        <mxCell id="g5UhdfYq97m2kKCq9jQ_-1" value="Game Controller" style="ellipse;whiteSpace=wrap;html=1;" vertex="1" parent="1">
          <mxGeometry x="500" y="320" width="80" height="40" as="geometry" />
        </mxCell>
        <mxCell id="g5UhdfYq97m2kKCq9jQ_-3" style="edgeStyle=orthogonalEdgeStyle;rounded=0;orthogonalLoop=1;jettySize=auto;html=1;exitX=0.5;exitY=1;exitDx=0;exitDy=0;dashed=1;entryX=0.5;entryY=0;entryDx=0;entryDy=0;" edge="1" parent="1" source="0xTwku5NVh-F6FxW5PhT-6" target="g5UhdfYq97m2kKCq9jQ_-1">
          <mxGeometry relative="1" as="geometry">
            <mxPoint x="525" y="320" as="sourcePoint" />
            <mxPoint x="420" y="400" as="targetPoint" />
          </mxGeometry>
        </mxCell>
        <mxCell id="g5UhdfYq97m2kKCq9jQ_-4" style="edgeStyle=orthogonalEdgeStyle;rounded=0;orthogonalLoop=1;jettySize=auto;html=1;exitX=0.5;exitY=1;exitDx=0;exitDy=0;entryX=0.5;entryY=0;entryDx=0;entryDy=0;dashed=1;" edge="1" parent="1" source="g5UhdfYq97m2kKCq9jQ_-1" target="0xTwku5NVh-F6FxW5PhT-15">
          <mxGeometry relative="1" as="geometry">
            <mxPoint x="550" y="410" as="sourcePoint" />
            <mxPoint x="500" y="490" as="targetPoint" />
          </mxGeometry>
        </mxCell>
        <mxCell id="g5UhdfYq97m2kKCq9jQ_-5" value="Switch&amp;nbsp;&lt;div&gt;Pl&lt;span style=&quot;background-color: initial;&quot;&gt;ayer&lt;/span&gt;&lt;/div&gt;" style="ellipse;whiteSpace=wrap;html=1;" vertex="1" parent="1">
          <mxGeometry x="500" y="440" width="80" height="40" as="geometry" />
        </mxCell>
        <mxCell id="g5UhdfYq97m2kKCq9jQ_-6" style="edgeStyle=orthogonalEdgeStyle;rounded=0;orthogonalLoop=1;jettySize=auto;html=1;exitX=0.5;exitY=1;exitDx=0;exitDy=0;entryX=0.5;entryY=0;entryDx=0;entryDy=0;dashed=1;" edge="1" parent="1" source="g5UhdfYq97m2kKCq9jQ_-1" target="g5UhdfYq97m2kKCq9jQ_-5">
          <mxGeometry relative="1" as="geometry">
            <mxPoint x="550" y="370" as="sourcePoint" />
            <mxPoint x="650" y="450" as="targetPoint" />
          </mxGeometry>
        </mxCell>
        <mxCell id="g5UhdfYq97m2kKCq9jQ_-7" value="Create King" style="ellipse;whiteSpace=wrap;html=1;" vertex="1" parent="1">
          <mxGeometry x="690" y="440" width="80" height="40" as="geometry" />
        </mxCell>
        <mxCell id="g5UhdfYq97m2kKCq9jQ_-8" style="edgeStyle=orthogonalEdgeStyle;rounded=0;orthogonalLoop=1;jettySize=auto;html=1;exitX=0.5;exitY=1;exitDx=0;exitDy=0;entryX=0.5;entryY=0;entryDx=0;entryDy=0;dashed=1;" edge="1" parent="1" source="g5UhdfYq97m2kKCq9jQ_-1" target="g5UhdfYq97m2kKCq9jQ_-7">
          <mxGeometry relative="1" as="geometry">
            <mxPoint x="550" y="370" as="sourcePoint" />
            <mxPoint x="550" y="450" as="targetPoint" />
          </mxGeometry>
        </mxCell>
      </root>
    </mxGraphModel>
  </diagram>
</mxfile>
